<?xml version="1.0" encoding="UTF-8" standalone="no"?>
<!DOCTYPE svg PUBLIC "-//W3C//DTD SVG 1.1//EN" "http://www.w3.org/Graphics/SVG/1.1/DTD/svg11.dtd">
<svg version="1.1" xmlns="http://www.w3.org/2000/svg" xmlns:xlink="http://www.w3.org/1999/xlink" preserveAspectRatio="xMidYMid meet" viewBox="0 0 640 640" width="640" height="640"><defs><path d="M249.11 521.82C249.9 522.34 250.68 522.92 254.48 525.52C266.09 533.59 278.33 522.81 290 512.5C295.16 507.97 300.21 503.49 305.57 500.05C306.38 501.32 312.84 511.49 313.65 512.76C309.32 515.52 304.69 519.64 299.95 523.8C283.96 537.92 267.24 552.71 245.89 537.92C245.34 537.54 241.01 534.54 240.47 534.17C212.92 514.9 193.18 501.09 173.44 527.03C172.64 526.42 168.65 523.36 161.46 517.86L161.46 517.86L161.46 517.86C196.91 504.43 226.13 505.75 249.11 521.82ZM471.15 42.6C469.27 52.4 470.57 62.66 474.06 73.44C474.3 74.15 475.46 77.73 477.55 84.17L106.35 84.17L106.35 574.79C106.32 574.79 106.31 574.79 106.3 574.79C106.3 592.66 110.1 605.73 117.97 613.54C125.62 621.15 137.86 624.11 155 622.19C155.06 622.18 155.35 622.17 155.89 622.14L530.94 622.14L530.94 67.08C530.97 66.86 530.99 66.74 530.99 66.72C531.93 45.42 527.14 32.86 518.59 25.89C510.63 19.32 498.75 16.93 484.9 16.46C484.9 16.46 484.9 16.46 484.9 16.46L484.9 16.46C476.88 27.99 472.29 36.7 471.15 42.6ZM13.02 84.17C13.21 79.07 13.31 76.24 13.33 75.68C13.96 58.44 17.45 42.97 25 30.16C32.76 16.98 44.69 6.77 62.08 0.52C62.27 0.49 63.19 0.31 64.84 0L500.89 0C500.07 0.81 499.62 1.26 499.53 1.35C510.89 3.07 520.94 6.61 529.01 13.18C541.46 23.33 548.49 40 547.34 67.03C547.34 67.03 547.34 67.03 547.34 67.03L547.34 554.43C582.28 554.43 601.69 554.43 605.57 554.43C611.93 554.43 606.67 554.48 608.54 554.43C617.08 554.38 620.94 554.38 624.48 558.96C627.24 562.5 627.08 565.68 626.77 571.41C626.67 573.28 626.56 575.63 626.56 579.22C626.56 608.07 616.61 624.53 599.79 633.07C584.95 640.63 565.21 641.2 542.6 638.49C503.97 638.49 194.89 638.49 156.25 638.49C134.17 640.83 117.71 636.2 106.46 625.1C95.36 614.06 90 597.14 90 574.74C90 574.74 89.98 574.74 89.95 574.74L89.95 84.17L89.95 84.17L89.95 84.17L13.02 84.17ZM464.38 16.41C424.56 16.41 106.02 16.41 66.2 16.41C53.54 21.3 44.79 28.85 39.11 38.49C34.22 46.77 31.46 56.67 30.26 67.76C72.8 67.76 413.09 67.76 455.63 67.76C453.65 58.23 453.28 48.8 455.05 39.53C455.05 39.53 455.05 39.53 455.05 39.53L455.05 39.53C458.07 29.15 461.18 21.44 464.38 16.41ZM547.4 622.6C565.78 624.58 581.46 624.06 592.4 618.49C603.54 612.81 610.16 600.89 610.16 579.22C610.16 576.09 610.31 573.07 610.42 570.62C610.52 568.75 612.5 570.21 611.51 568.96C610.16 567.19 611.56 570.73 608.59 570.78C604.84 570.78 609.69 570.83 605.52 570.83C601.65 570.83 582.27 570.83 547.4 570.83L547.4 570.89L547.4 570.89C547.4 601.92 547.4 619.16 547.4 622.6ZM159.32 158.13C159.32 153.59 163.02 149.95 167.5 149.95C191.18 149.95 380.59 149.95 404.27 149.95C408.8 149.95 412.45 153.59 412.45 158.13C412.45 162.66 408.75 166.3 404.27 166.3C388.49 166.3 309.56 166.3 167.5 166.3L167.5 166.3C162.05 163.87 159.32 161.15 159.32 158.13ZM159.27 242.08C159.27 237.55 162.97 233.91 167.5 233.91C196.55 233.91 428.92 233.91 457.97 233.91C462.5 233.91 466.2 237.55 466.2 242.08C466.2 246.61 462.5 250.26 457.97 250.26C438.6 250.26 341.78 250.26 167.5 250.26L167.5 250.26C162.01 247.83 159.27 245.1 159.27 242.08ZM159.32 326.09C159.32 321.56 163.02 317.92 167.5 317.92C190.71 317.92 376.42 317.92 399.64 317.92C404.17 317.92 407.81 321.61 407.81 326.09C407.81 330.63 404.17 334.27 399.64 334.27C384.16 334.27 306.78 334.27 167.5 334.27L167.5 334.27C162.05 331.84 159.32 329.11 159.32 326.09ZM159.32 410.05C159.32 405.52 162.97 401.82 167.5 401.82C179.52 401.82 275.64 401.82 287.66 401.82C292.19 401.82 295.83 405.52 295.83 410.05C295.83 414.58 292.19 418.28 287.66 418.28C279.65 418.28 239.59 418.28 167.5 418.28L167.5 418.28C162.05 415.82 159.32 413.07 159.32 410.05ZM436.61 401.51C439.9 403.65 443.59 407.71 448.23 410.31C454.69 413.96 466.67 408.91 472.76 418.02C476.3 423.33 476.46 427.45 476.77 431.56C477.03 435.99 477.81 440.05 482.4 446.04C489.9 455.99 491.46 462.6 487.6 469.48C484.95 474.22 479.38 476.82 478.13 479.74C475.42 486.04 478.39 490.83 474.69 498.23C472.08 503.33 468.07 506.72 462.76 508.44C458.28 509.9 453.7 507.76 450.1 509.32C443.8 511.98 439.11 518.13 434.06 519.74C432.14 520.36 430.16 520.63 428.23 520.63C426.3 520.63 424.32 520.36 422.4 519.74C417.34 518.18 412.71 511.98 406.35 509.32C402.76 507.81 398.23 509.9 393.7 508.44C388.39 506.72 384.32 503.33 381.77 498.23C378.07 490.83 381.04 486.09 378.33 479.74C377.03 476.72 371.51 474.11 368.85 469.48C364.95 462.6 366.51 455.99 374.06 446.04C378.59 440.05 379.37 435.94 379.69 431.56C379.95 427.45 380.16 423.28 383.7 418.02C389.79 408.91 401.77 414.01 408.23 410.31C412.81 407.71 416.56 403.54 419.84 401.51C422.34 399.84 424.9 398.75 428.18 398.85C428.18 398.85 428.18 398.85 428.18 398.85L428.18 398.85C432.07 399.51 434.88 400.4 436.61 401.51ZM464.64 459.74C464.64 479.9 448.33 496.2 428.18 496.2C408.02 496.2 391.72 479.9 391.72 459.74C391.72 439.58 408.02 423.28 428.18 423.28C428.18 423.28 428.18 423.28 428.18 423.28C452.48 434.15 464.64 446.3 464.64 459.74Z" id="a75kLmyKqI"></path></defs><g><g><g><use xlink:href="#a75kLmyKqI" opacity="1" fill="#000000" fill-opacity="1"></use><g><use xlink:href="#a75kLmyKqI" opacity="1" fill-opacity="0" stroke="#ffffff" stroke-width="1" stroke-opacity="0"></use></g></g></g></g></svg>